<?xml version="1.0" encoding="UTF-8" standalone="no"?>
<svg
   xmlns:dc="http://purl.org/dc/elements/1.1/"
   xmlns:cc="http://creativecommons.org/ns#"
   xmlns:rdf="http://www.w3.org/1999/02/22-rdf-syntax-ns#"
   xmlns:svg="http://www.w3.org/2000/svg"
   xmlns="http://www.w3.org/2000/svg"
   xmlns:sodipodi="http://sodipodi.sourceforge.net/DTD/sodipodi-0.dtd"
   xmlns:inkscape="http://www.inkscape.org/namespaces/inkscape"
   xml:space="preserve"
   enable-background="new 0 0 300 100"
   viewBox="0 0 300 100"
   height="100px"
   width="300px"
   y="0px"
   x="0px"
   id="Layer_1"
   version="1.1"
   sodipodi:docname="big_logo.svg"
   inkscape:version="0.92.3 (2405546, 2018-03-11)"><sodipodi:namedview
     pagecolor="#ffffff"
     bordercolor="#666666"
     borderopacity="1"
     objecttolerance="10"
     gridtolerance="10"
     guidetolerance="10"
     inkscape:pageopacity="0"
     inkscape:pageshadow="2"
     inkscape:window-width="1289"
     inkscape:window-height="1104"
     id="namedview14"
     showgrid="false"
     inkscape:zoom="1.22"
     inkscape:cx="4.0983607"
     inkscape:cy="-15.57377"
     inkscape:window-x="1144"
     inkscape:window-y="123"
     inkscape:window-maximized="0"
     inkscape:current-layer="g18" /><metadata
     id="metadata25"><rdf:RDF><cc:Work
         rdf:about=""><dc:format>image/svg+xml</dc:format><dc:type
           rdf:resource="http://purl.org/dc/dcmitype/StillImage" /><dc:title /></cc:Work></rdf:RDF></metadata><defs
     id="defs23" /><g
     transform="matrix(1.2935718,0,0,1.2935718,-44.037064,-14.679884)"
     id="g18"><g
       aria-label="iSTRUM"
       transform="matrix(1.2818545,0,0,1.2818545,51.161887,-166.57506)"
       style="font-style:normal;font-variant:normal;font-weight:normal;font-stretch:normal;font-size:40px;line-height:1;font-family:Navilu;-inkscape-font-specification:Navilu;letter-spacing:0px;word-spacing:0px;fill:#00838f;fill-opacity:1;stroke:none"
       id="flowRoot821"><path
         d="m 10.699688,184.41766 v -1.2 l -0.9600005,-0.08 c -1.8,-0.2 -2.48,-1.12 -2.48,-3.32 v -14.8 h -1.36 c -2.44,0.44 -3.76,0.64 -5.88,0.8 v 1.2 l 0.8,0.08 c 2.08,0.2 2.64,0.92 2.64,3.32 v 9.4 c 0,2.2 -0.72,3.12 -2.48,3.32 l -1,0.08 v 1.2 z m -3.0800005,-25.2 c 0,-1.28 -1.08,-2.36 -2.32,-2.36 -1.32,0 -2.4,1.04 -2.4,2.36 0,1.28 1.08,2.36 2.36,2.36 1.28,0 2.36,-1.08 2.36,-2.36 z"
         style="font-style:normal;font-variant:normal;font-weight:normal;font-stretch:normal;font-family:'TeX Gyre Bonum Math';-inkscape-font-specification:'TeX Gyre Bonum Math';fill:#00838f;fill-opacity:1"
         id="path819" /><path
         d="m 36.570937,176.33766 c 0,-4.76 -2.799999,-6.56 -8.48,-7.92 l -5,-1.2 c -3.88,-0.96 -5.439999,-2.2 -5.439999,-4.36 0,-2.4 2.559999,-4.28 5.879999,-4.28 3.84,0 7.04,2.04 9.840001,6.32 l 1.279999,-0.48 -2.44,-7.24 h -1.44 l -0.479999,1.44 c -2.240001,-1.36 -4.520001,-1.96 -7.56,-1.96 -6.680001,0 -9.160001,4.32 -9.160001,7.16 0,5.4 6.240001,6.8 8.240001,7.32 l 5.359999,1.36 c 3.960001,0.96 5.32,2.16 5.32,4.56 0,3.4 -3.12,5.96 -7.24,5.96 -4.599999,0 -8.64,-2.88 -11.439999,-8.24 l -1.48,0.48 2.599999,9.16 h 1.48 l 0.76,-2 c 2.44,1.72 5.08,2.52 8.28,2.52 6.24,0 11.12,-3.8 11.12,-8.6 z"
         style="font-style:normal;font-variant:normal;font-weight:normal;font-stretch:normal;font-family:'TeX Gyre Bonum Math';-inkscape-font-specification:'TeX Gyre Bonum Math';fill:#00838f;fill-opacity:1"
         id="path821" /><path
         d="m 63.857188,164.21766 -2.240001,-7.04 h -23.2 l -2.279999,7.04 1.32,0.48 c 2.36,-4.16 5.119999,-6 8.799999,-6 1.32,0 1.76,0.4 1.76,1.6 v 18.36 c 0,3.24 -0.6,4.24 -2.6,4.4 l -1.559999,0.12 v 1.24 h 12.32 v -1.24 l -1.560001,-0.12 c -2,-0.16 -2.6,-1.16 -2.6,-4.4 v -18.2 c 0,-1.4 0.32,-1.76 1.64,-1.76 3.520001,0 6.560001,2.08 8.800001,6 z"
         style="font-style:normal;font-variant:normal;font-weight:normal;font-stretch:normal;font-family:'TeX Gyre Bonum Math';-inkscape-font-specification:'TeX Gyre Bonum Math';fill:#00838f;fill-opacity:1"
         id="path823" /><path
         d="m 92.662812,184.41766 v -1.24 c -1.96,-0.36 -3.039999,-1 -4.28,-2.6 l -6.64,-9.4 c 6.600001,-0.96 7.400001,-5.12 7.400001,-7.12 0,-4.28 -3.480001,-6.88 -9.240001,-6.88 H 63.622813 v 1.24 l 0.999999,0.12 c 2.08,0.28 2.600001,1.12 2.600001,4.4 v 15.72 c 0,3.28 -0.520001,4.12 -2.600001,4.4 l -0.999999,0.12 v 1.24 h 11.639999 v -1.24 l -1.44,-0.12 c -2.039999,-0.2 -2.599999,-1.16 -2.599999,-4.4 v -7.08 h 5.759999 l 9,12.84 z m -7.84,-20.2 c 0,1.88 -0.759999,5.64 -6.879999,5.64 h -6.72 v -8.68 c 0,-1.4 0.759999,-2.36 5.92,-2.36 5.119999,0 7.679999,1.8 7.679999,5.4 z"
         style="font-style:normal;font-variant:normal;font-weight:normal;font-stretch:normal;font-family:'TeX Gyre Bonum Math';-inkscape-font-specification:'TeX Gyre Bonum Math';fill:#00838f;fill-opacity:1"
         id="path825" /><path
         d="m 121.37094,158.41766 v -1.24 h -9.8 v 1.24 l 1.32,0.12 c 2.04,0.2 2.6,1.16 2.6,4.4 v 10.6 c 0,4.72 0,9.48 -8,9.48 -7.2,0 -7.680003,-3.96 -7.680003,-9.4 v -10.68 c 0,-3.24 0.600003,-4.24 2.600003,-4.4 l 1.48,-0.12 v -1.24 H 92.210937 v 1.24 l 1,0.12 c 2.08,0.28 2.6,1.12 2.6,4.4 v 13.4 c 0,6.88 5.640003,8.6 11.080003,8.6 8.52,0 10.88,-3.48 10.88,-8.68 v -13.32 c 0,-3.28 0.52,-4.12 2.6,-4.4 z"
         style="font-style:normal;font-variant:normal;font-weight:normal;font-stretch:normal;font-family:'TeX Gyre Bonum Math';-inkscape-font-specification:'TeX Gyre Bonum Math';fill:#00838f;fill-opacity:1"
         id="path827" /><path
         d="m 158.14281,184.41766 v -1.24 l -1,-0.12 c -2.08,-0.28 -2.6,-1.12 -2.6,-4.4 v -15.72 c 0,-3.28 0.52,-4.12 2.6,-4.4 l 1,-0.12 v -1.24 h -9.12 l -8.36,20.6 -7.68,-20.6 h -9.32 v 1.24 l 1,0.12 c 2.08,0.28 2.6,1.12 2.6,4.4 v 15.72 c 0,3.24 -0.56,4.2 -2.6,4.4 l -1.24,0.12 v 1.24 h 10.12 v -1.24 l -1.4,-0.12 c -2.04,-0.2 -2.6,-1.16 -2.6,-4.4 v -19.12 l 9.16,24.88 h 1.8 l 10.04,-24.4 v 18.64 c 0,3.28 -0.52,4.12 -2.6,4.4 l -1,0.12 v 1.24 z"
         style="font-style:normal;font-variant:normal;font-weight:normal;font-stretch:normal;font-family:'TeX Gyre Bonum Math';-inkscape-font-specification:'TeX Gyre Bonum Math';fill:#00838f;fill-opacity:1"
         id="path829" /></g></g></svg>