<?xml version="1.0" encoding="UTF-8" standalone="no"?>
<!-- Created with Inkscape (http://www.inkscape.org/) -->

<svg
   version="1.1"
   id="svg1"
   width="515"
   height="515"
   viewBox="0 0 515 515"
   sodipodi:docname="istrum-logo-no-text.svg"
   inkscape:version="1.3.2 (091e20e, 2023-11-25)"
   xmlns:inkscape="http://www.inkscape.org/namespaces/inkscape"
   xmlns:sodipodi="http://sodipodi.sourceforge.net/DTD/sodipodi-0.dtd"
   xmlns="http://www.w3.org/2000/svg"
   xmlns:svg="http://www.w3.org/2000/svg">
  <defs
     id="defs1">
    <clipPath
       clipPathUnits="userSpaceOnUse"
       id="clipPath2">
      <path
         d="M 0,386.347 V 0.112 l 423.856,4.123 -10.182,117.092 -199.316,68.285 186.798,105.148 9.781,91.587 z"
         transform="translate(-21.610501,-193.5978)"
         id="path2" />
    </clipPath>
    <clipPath
       clipPathUnits="userSpaceOnUse"
       id="clipPath4">
      <path
         d="M 0,386.347 V 0.112 l 423.856,4.123 -10.182,117.092 -199.316,68.285 186.798,105.148 9.781,91.587 z"
         transform="translate(-30.623601,-193.5978)"
         id="path4" />
    </clipPath>
    <clipPath
       clipPathUnits="userSpaceOnUse"
       id="clipPath6">
      <path
         d="M 0,386.347 V 0.112 l 423.856,4.123 -10.182,117.092 -199.316,68.285 186.798,105.148 9.781,91.587 z"
         transform="translate(-106.8018,-193.5978)"
         id="path6" />
    </clipPath>
    <clipPath
       clipPathUnits="userSpaceOnUse"
       id="clipPath8">
      <path
         d="M 0,386.346 H 473.505 V 0 H 0 Z"
         transform="translate(-33.422301,-130.7359)"
         id="path8" />
    </clipPath>
    <clipPath
       clipPathUnits="userSpaceOnUse"
       id="clipPath10">
      <path
         d="M 0,386.346 H 473.505 V 0 H 0 Z"
         transform="translate(-205.05181,-289.8835)"
         id="path10" />
    </clipPath>
    <clipPath
       clipPathUnits="userSpaceOnUse"
       id="clipPath12">
      <path
         d="M 0,386.346 H 473.505 V 0 H 0 Z"
         transform="translate(-184.52661,-308.85601)"
         id="path12" />
    </clipPath>
    <clipPath
       clipPathUnits="userSpaceOnUse"
       id="clipPath14">
      <path
         d="M 0,386.346 H 473.505 V 0 H 0 Z"
         transform="translate(-262.0222,-330.09091)"
         id="path14" />
    </clipPath>
    <clipPath
       clipPathUnits="userSpaceOnUse"
       id="clipPath16">
      <path
         d="M 0,386.346 H 473.505 V 0 H 0 Z"
         transform="translate(-217.7398,-342.47381)"
         id="path16" />
    </clipPath>
    <clipPath
       clipPathUnits="userSpaceOnUse"
       id="clipPath18">
      <path
         d="M 0,386.346 H 473.505 V 0 H 0 Z"
         transform="translate(-287.91531,-313.25601)"
         id="path18" />
    </clipPath>
    <clipPath
       clipPathUnits="userSpaceOnUse"
       id="clipPath20">
      <path
         d="M 0,386.346 H 473.505 V 0 H 0 Z"
         transform="translate(-192.58761,-335.61911)"
         id="path20" />
    </clipPath>
    <clipPath
       clipPathUnits="userSpaceOnUse"
       id="clipPath22">
      <path
         d="M 0,386.346 H 473.505 V 0 H 0 Z"
         transform="translate(-248.69631,-277.4419)"
         id="path22" />
    </clipPath>
    <clipPath
       clipPathUnits="userSpaceOnUse"
       id="clipPath24">
      <path
         d="M 0,386.346 H 473.505 V 0 H 0 Z"
         transform="translate(-282.33811,-276.54591)"
         id="path24" />
    </clipPath>
    <clipPath
       clipPathUnits="userSpaceOnUse"
       id="clipPath26">
      <path
         d="M 0,386.346 H 473.505 V 0 H 0 Z"
         transform="translate(-267.00931,-340.03651)"
         id="path26" />
    </clipPath>
    <clipPath
       clipPathUnits="userSpaceOnUse"
       id="clipPath28">
      <path
         d="M 0,386.346 H 473.505 V 0 H 0 Z"
         transform="translate(-219.57931,-355.15911)"
         id="path28" />
    </clipPath>
    <clipPath
       clipPathUnits="userSpaceOnUse"
       id="clipPath30">
      <path
         d="M 0,386.346 H 473.505 V 0 H 0 Z"
         transform="translate(-43.868601,-216.62641)"
         id="path30" />
    </clipPath>
    <clipPath
       clipPathUnits="userSpaceOnUse"
       id="clipPath32">
      <path
         d="M 0,386.346 H 473.505 V 0 H 0 Z"
         transform="translate(-54.105901,-207.46851)"
         id="path32" />
    </clipPath>
    <clipPath
       clipPathUnits="userSpaceOnUse"
       id="clipPath34">
      <path
         d="M 0,386.346 H 473.505 V 0 H 0 Z"
         transform="translate(-91.7929,-207.46851)"
         id="path34" />
    </clipPath>
    <clipPath
       clipPathUnits="userSpaceOnUse"
       id="clipPath36">
      <path
         d="M 0,386.346 H 473.505 V 0 H 0 Z"
         transform="translate(-82.354105,-186.8851)"
         id="path36" />
    </clipPath>
    <clipPath
       clipPathUnits="userSpaceOnUse"
       id="clipPath38">
      <path
         d="M 0,386.346 H 473.505 V 0 H 0 Z"
         transform="translate(-64.998902,-129.34821)"
         id="path38" />
    </clipPath>
    <clipPath
       clipPathUnits="userSpaceOnUse"
       id="clipPath40">
      <path
         d="M 0,386.346 H 473.505 V 0 H 0 Z"
         transform="translate(-95.415805,-132.966)"
         id="path40" />
    </clipPath>
    <clipPath
       clipPathUnits="userSpaceOnUse"
       id="clipPath42">
      <path
         d="M 0,386.346 H 473.505 V 0 H 0 Z"
         transform="translate(-40.572901,-132.966)"
         id="path42" />
    </clipPath>
    <clipPath
       clipPathUnits="userSpaceOnUse"
       id="clipPath48">
      <path
         d="M 0,386.346 H 473.505 V 0 H 0 Z"
         transform="translate(-353.64631,-267.3817)"
         id="path48" />
    </clipPath>
  </defs>
  <sodipodi:namedview
     id="namedview1"
     pagecolor="#ffffff"
     bordercolor="#000000"
     borderopacity="0.25"
     inkscape:showpageshadow="2"
     inkscape:pageopacity="0.0"
     inkscape:pagecheckerboard="0"
     inkscape:deskcolor="#d1d1d1"
     showgrid="false"
     inkscape:zoom="0.47805552"
     inkscape:cx="390.12205"
     inkscape:cy="369.20398"
     inkscape:window-width="1312"
     inkscape:window-height="690"
     inkscape:window-x="195"
     inkscape:window-y="98"
     inkscape:window-maximized="0"
     inkscape:current-layer="layer-MC0">
    <inkscape:page
       x="0"
       y="0"
       inkscape:label="1"
       id="page1"
       width="515"
       height="515"
       margin="0 15.553333 0 0"
       bleed="0" />
  </sodipodi:namedview>
  <g
     id="layer-MC0"
     inkscape:groupmode="layer"
     inkscape:label="Layer 1">
    <path
       id="path1"
       d="m 0,0 c 0,95.291 77.249,172.54 172.54,172.54 95.291,0 172.54,-77.249 172.54,-172.54 0,-95.291 -77.249,-172.54 -172.54,-172.54 C 77.249,-172.54 0,-95.291 0,0"
       style="fill:#f0752b;fill-opacity:1;fill-rule:nonzero;stroke:#29353f;stroke-width:6;stroke-linecap:butt;stroke-linejoin:miter;stroke-miterlimit:10;stroke-dasharray:none;stroke-opacity:1"
       transform="matrix(1.3333333,0,0,-1.3333333,28.814,256.9976)"
       clip-path="url(#clipPath2)" />
    <path
       id="path3"
       d="M 0,0 C 0,90.313 73.213,163.527 163.527,163.527 253.84,163.527 327.053,90.313 327.053,0 327.053,-90.313 253.84,-163.527 163.527,-163.527 73.213,-163.527 0,-90.313 0,0"
       style="fill:#ec4727;fill-opacity:1;fill-rule:nonzero;stroke:none"
       transform="matrix(1.3333333,0,0,-1.3333333,40.831467,256.9976)"
       clip-path="url(#clipPath4)" />
    <path
       id="path5"
       d="m 0,0 c 0,48.241 39.107,87.348 87.348,87.348 48.242,0 87.349,-39.107 87.349,-87.348 0,-48.241 -39.107,-87.348 -87.349,-87.348 C 39.107,-87.348 0,-48.241 0,0"
       style="fill:#d52126;fill-opacity:1;fill-rule:nonzero;stroke:none"
       transform="matrix(1.3333333,0,0,-1.3333333,142.4024,256.9976)"
       clip-path="url(#clipPath6)" />
    <path
       id="path7"
       d="m 0,0 66.528,-0.455 c 25.976,0.376 12.766,67.235 29.036,67.757 14.97,0.479 -0.345,-126.138 21.131,-126.138 23.428,0 8.195,182.419 31.624,182.419 22.564,0 16.998,-156.675 32.617,-157.196 17.495,-0.583 19.182,65.986 30.896,65.986 11.714,0 15.416,-76.468 31.035,-75.892 15.619,0.576 15.337,45.15 27.051,45.671 11.714,0.521 54.337,0.661 54.337,0.661"
       style="fill:none;stroke:#29353f;stroke-width:7;stroke-linecap:butt;stroke-linejoin:miter;stroke-miterlimit:10;stroke-dasharray:none;stroke-opacity:1"
       transform="matrix(1.3333333,0,0,-1.3333333,44.563067,340.81347)"
       clip-path="url(#clipPath8)" />
    <path
       id="path9"
       d="M 0,0 -1.123,-9.502"
       style="fill:none;stroke:#f6d590;stroke-width:6;stroke-linecap:butt;stroke-linejoin:miter;stroke-miterlimit:10;stroke-dasharray:none;stroke-opacity:1"
       transform="matrix(1.3333333,0,0,-1.3333333,273.4024,128.61667)"
       clip-path="url(#clipPath10)" />
    <path
       id="path11"
       d="M 0,0 -7.841,-2.137"
       style="fill:none;stroke:#f6d590;stroke-width:6;stroke-linecap:butt;stroke-linejoin:miter;stroke-miterlimit:10;stroke-dasharray:none;stroke-opacity:1"
       transform="matrix(1.3333333,0,0,-1.3333333,246.03547,103.32)"
       clip-path="url(#clipPath12)" />
    <path
       id="path13"
       d="m 0,0 18.037,-18.917 -5.759,-26.136 -25.416,-7.66 -18.71,19.467 6.246,26.269 z"
       style="fill:none;stroke:#f6d590;stroke-width:6;stroke-linecap:butt;stroke-linejoin:miter;stroke-miterlimit:10;stroke-dasharray:none;stroke-opacity:1"
       transform="matrix(1.3333333,0,0,-1.3333333,349.36293,75.0068)"
       clip-path="url(#clipPath14)" />
    <path
       id="path15"
       d="m 0,0 18.709,-19.467 -6.274,-26.161 -25.123,-6.962 -18.709,19.467 6.245,26.268 z"
       style="fill:none;stroke:#f6d590;stroke-width:6;stroke-linecap:butt;stroke-linejoin:miter;stroke-miterlimit:10;stroke-dasharray:none;stroke-opacity:1"
       transform="matrix(1.3333333,0,0,-1.3333333,290.31973,58.496267)"
       clip-path="url(#clipPath16)" />
    <path
       id="path17"
       d="M 0,0 -7.841,-2.137"
       style="fill:none;stroke:#f6d590;stroke-width:6;stroke-linecap:butt;stroke-linejoin:miter;stroke-miterlimit:10;stroke-dasharray:none;stroke-opacity:1"
       transform="matrix(1.3333333,0,0,-1.3333333,383.88707,97.453333)"
       clip-path="url(#clipPath18)" />
    <path
       id="path19"
       d="M 0,0 -8.075,8.402"
       style="fill:none;stroke:#f6d590;stroke-width:6;stroke-linecap:butt;stroke-linejoin:miter;stroke-miterlimit:10;stroke-dasharray:none;stroke-opacity:1"
       transform="matrix(1.3333333,0,0,-1.3333333,256.78347,67.635867)"
       clip-path="url(#clipPath20)" />
    <path
       id="path21"
       d="M 0,0 -6.884,-10.634"
       style="fill:none;stroke:#f6d590;stroke-width:6;stroke-linecap:butt;stroke-linejoin:miter;stroke-miterlimit:10;stroke-dasharray:none;stroke-opacity:1"
       transform="matrix(1.3333333,0,0,-1.3333333,331.59507,145.20547)"
       clip-path="url(#clipPath22)" />
    <path
       id="path23"
       d="M 0,0 -8.075,8.402"
       style="fill:none;stroke:#f6d590;stroke-width:6;stroke-linecap:butt;stroke-linejoin:miter;stroke-miterlimit:10;stroke-dasharray:none;stroke-opacity:1"
       transform="matrix(1.3333333,0,0,-1.3333333,376.4508,146.40013)"
       clip-path="url(#clipPath24)" />
    <path
       id="path25"
       d="M 0,0 -5.15,-10.105"
       style="fill:none;stroke:#f6d590;stroke-width:6;stroke-linecap:butt;stroke-linejoin:miter;stroke-miterlimit:10;stroke-dasharray:none;stroke-opacity:1"
       transform="matrix(1.3333333,0,0,-1.3333333,356.0124,61.746)"
       clip-path="url(#clipPath26)" />
    <path
       id="path27"
       d="M 0,0 -1.846,-12.662"
       style="fill:none;stroke:#f6d590;stroke-width:6;stroke-linecap:butt;stroke-linejoin:miter;stroke-miterlimit:10;stroke-dasharray:none;stroke-opacity:1"
       transform="matrix(1.3333333,0,0,-1.3333333,292.7724,41.582533)"
       clip-path="url(#clipPath28)" />
    <path
       id="path29"
       d="m 0,0 h 47.686 c 0,0 -2.02,13.881 -23.843,13.881 C 2.021,13.881 0,0 0,0"
       style="fill:#28363d;fill-opacity:1;fill-rule:nonzero;stroke:none"
       transform="matrix(1.3333333,0,0,-1.3333333,58.491467,226.2928)"
       clip-path="url(#clipPath30)" />
    <path
       id="path31"
       d="m 0,0 h 28.008 c 0,0 -1.187,-9.644 -14.004,-9.644 C 1.187,-9.644 0,0 0,0"
       style="fill:#28363d;fill-opacity:1;fill-rule:nonzero;stroke:none"
       transform="matrix(1.3333333,0,0,-1.3333333,72.1412,238.50333)"
       clip-path="url(#clipPath32)" />
    <path
       id="path33"
       d="m 0,0 h -48.529 c -1.085,0 -1.965,0.88 -1.965,1.965 v 3.14 c 0,1.085 0.88,1.965 1.965,1.965 H 0 c 1.085,0 1.965,-0.88 1.965,-1.965 V 1.965 C 1.965,0.88 1.085,0 0,0"
       style="fill:#28363d;fill-opacity:1;fill-rule:nonzero;stroke:none"
       transform="matrix(1.3333333,0,0,-1.3333333,122.39053,238.50333)"
       clip-path="url(#clipPath34)" />
    <path
       id="path35"
       d="m 0,0 h -25.681 c -1.035,0 -1.874,0.839 -1.874,1.873 v 2.993 c 0,1.035 0.839,1.873 1.874,1.873 H 0 c 1.035,0 1.873,-0.838 1.873,-1.873 V 1.873 C 1.873,0.839 1.035,0 0,0"
       style="fill:#28363d;fill-opacity:1;fill-rule:nonzero;stroke:none"
       transform="matrix(1.3333333,0,0,-1.3333333,109.80547,265.94787)"
       clip-path="url(#clipPath36)" />
    <path
       id="path37"
       d="m 0,0 v 70.853 c 0,1.051 0.852,1.904 1.903,1.904 h 2.629 c 1.052,0 1.904,-0.853 1.904,-1.904 V 0 c 0,-1.051 -0.852,-1.903 -1.904,-1.903 H 1.903 C 0.852,-1.903 0,-1.051 0,0"
       style="fill:#28363d;fill-opacity:1;fill-rule:nonzero;stroke:none"
       transform="matrix(1.3333333,0,0,-1.3333333,86.6652,342.66373)"
       clip-path="url(#clipPath38)" />
    <path
       id="path39"
       d="m 0,0 -24.124,56.098 c -0.429,0.997 -1.537,1.436 -2.474,0.979 l -1.813,-0.882 c -0.938,-0.457 -1.35,-1.636 -0.921,-2.633 L -5.208,-2.536 c 0.429,-0.998 1.537,-1.436 2.474,-0.98 l 1.813,0.883 C 0.017,-2.176 0.429,-0.998 0,0"
       style="fill:#28363d;fill-opacity:1;fill-rule:nonzero;stroke:none"
       transform="matrix(1.3333333,0,0,-1.3333333,127.22107,337.84)"
       clip-path="url(#clipPath40)" />
    <path
       id="path41"
       d="m 0,0 24.124,56.098 c 0.429,0.997 1.537,1.436 2.474,0.979 l 1.813,-0.882 c 0.938,-0.457 1.35,-1.636 0.921,-2.633 L 5.208,-2.536 C 4.779,-3.534 3.671,-3.972 2.734,-3.516 L 0.921,-2.633 C -0.017,-2.176 -0.429,-0.998 0,0"
       style="fill:#28363d;fill-opacity:1;fill-rule:nonzero;stroke:none"
       transform="matrix(1.3333333,0,0,-1.3333333,54.0972,337.84)"
       clip-path="url(#clipPath42)" />
    <path
       id="path47"
       d="M 0,0 -139.288,-77.77 7.515,-128.064"
       style="fill:none;stroke:#29353f;stroke-width:6;stroke-linecap:butt;stroke-linejoin:miter;stroke-miterlimit:10;stroke-dasharray:none;stroke-opacity:1"
       transform="matrix(1.3333333,0,0,-1.3333333,471.5284,158.61907)"
       clip-path="url(#clipPath48)" />
  </g>
</svg>
